<mxfile host="Electron" modified="2024-03-15T18:14:37.439Z" agent="Mozilla/5.0 (Windows NT 10.0; Win64; x64) AppleWebKit/537.36 (KHTML, like Gecko) draw.io/24.0.4 Chrome/120.0.6099.109 Electron/28.1.0 Safari/537.36" etag="11OV6ZodusmhBu83QuY_" version="24.0.4" type="device">
  <diagram name="Страница — 1" id="cja9YgBklcPo3PZzwm7F">
    <mxGraphModel dx="2429" dy="1299" grid="1" gridSize="10" guides="1" tooltips="1" connect="1" arrows="1" fold="1" page="1" pageScale="1" pageWidth="827" pageHeight="1169" math="0" shadow="0">
      <root>
        <mxCell id="0" />
        <mxCell id="1" parent="0" />
        <mxCell id="GTw-UG3XcRqFb4BUSXq_-179" value="&lt;font size=&quot;1&quot; style=&quot;&quot;&gt;&lt;b style=&quot;font-size: 30px;&quot;&gt;Вход, регистрация&lt;/b&gt;&lt;/font&gt;" style="html=1;align=center;verticalAlign=top;rounded=1;absoluteArcSize=1;arcSize=18;dashed=0;whiteSpace=wrap;fillColor=#ffe6cc;strokeColor=#d79b00;" parent="1" vertex="1">
          <mxGeometry x="1720" y="1710" width="640" height="1797" as="geometry" />
        </mxCell>
        <mxCell id="cZp9UAYfrb_sJj40lZsu-2" style="edgeStyle=orthogonalEdgeStyle;rounded=0;orthogonalLoop=1;jettySize=auto;html=1;entryX=0.5;entryY=0;entryDx=0;entryDy=0;exitX=0.483;exitY=1.003;exitDx=0;exitDy=0;exitPerimeter=0;endArrow=open;endFill=0;" parent="1" source="GTw-UG3XcRqFb4BUSXq_-180" target="cZp9UAYfrb_sJj40lZsu-1" edge="1">
          <mxGeometry relative="1" as="geometry" />
        </mxCell>
        <mxCell id="GTw-UG3XcRqFb4BUSXq_-180" value="&lt;font size=&quot;1&quot; style=&quot;&quot;&gt;&lt;b style=&quot;font-size: 30px;&quot;&gt;Регистрация&lt;/b&gt;&lt;/font&gt;" style="html=1;align=center;verticalAlign=top;rounded=1;absoluteArcSize=1;arcSize=18;dashed=0;whiteSpace=wrap;fillColor=#d5e8d4;strokeColor=#82b366;" parent="1" vertex="1">
          <mxGeometry x="1887.5" y="1840" width="305" height="120" as="geometry" />
        </mxCell>
        <mxCell id="GTw-UG3XcRqFb4BUSXq_-181" value="&lt;font style=&quot;font-size: 20px;&quot;&gt;Регистрация&lt;/font&gt;" style="text;html=1;align=center;verticalAlign=middle;resizable=0;points=[];autosize=1;strokeColor=none;fillColor=none;" parent="1" vertex="1">
          <mxGeometry x="1620" y="1930" width="140" height="40" as="geometry" />
        </mxCell>
        <mxCell id="GTw-UG3XcRqFb4BUSXq_-182" style="edgeStyle=orthogonalEdgeStyle;rounded=1;orthogonalLoop=1;jettySize=auto;html=1;endArrow=open;endFill=0;entryX=0;entryY=0.5;entryDx=0;entryDy=0;exitX=0;exitY=0.045;exitDx=0;exitDy=0;exitPerimeter=0;" parent="1" source="GTw-UG3XcRqFb4BUSXq_-179" target="GTw-UG3XcRqFb4BUSXq_-184" edge="1">
          <mxGeometry relative="1" as="geometry">
            <mxPoint x="1700" y="2010" as="sourcePoint" />
            <mxPoint x="1635" y="2026" as="targetPoint" />
            <Array as="points">
              <mxPoint x="1570" y="1791" />
              <mxPoint x="1570" y="1910" />
            </Array>
          </mxGeometry>
        </mxCell>
        <mxCell id="GTw-UG3XcRqFb4BUSXq_-183" value="&lt;font style=&quot;font-size: 23px;&quot;&gt;Нажата кнопка &quot;Регистрация&quot;&lt;/font&gt;" style="text;html=1;align=center;verticalAlign=middle;resizable=0;points=[];autosize=1;strokeColor=none;fillColor=none;" parent="1" vertex="1">
          <mxGeometry x="1520" y="1740" width="340" height="40" as="geometry" />
        </mxCell>
        <mxCell id="GTw-UG3XcRqFb4BUSXq_-184" value="" style="ellipse;" parent="1" vertex="1">
          <mxGeometry x="1710" y="1900" width="20" height="20" as="geometry" />
        </mxCell>
        <mxCell id="GTw-UG3XcRqFb4BUSXq_-185" value="" style="html=1;verticalAlign=bottom;labelBackgroundColor=none;endArrow=open;endFill=0;rounded=1;exitX=1;exitY=0.5;exitDx=0;exitDy=0;entryX=-0.004;entryY=0.587;entryDx=0;entryDy=0;entryPerimeter=0;edgeStyle=orthogonalEdgeStyle;" parent="1" source="GTw-UG3XcRqFb4BUSXq_-184" target="GTw-UG3XcRqFb4BUSXq_-180" edge="1">
          <mxGeometry width="160" relative="1" as="geometry">
            <mxPoint x="1680" y="2024.57" as="sourcePoint" />
            <mxPoint x="1756" y="2030" as="targetPoint" />
          </mxGeometry>
        </mxCell>
        <mxCell id="GTw-UG3XcRqFb4BUSXq_-186" value="&lt;span style=&quot;font-size: 30px;&quot;&gt;&lt;b&gt;Вход&lt;/b&gt;&lt;/span&gt;" style="html=1;align=center;verticalAlign=top;rounded=1;absoluteArcSize=1;arcSize=18;dashed=0;whiteSpace=wrap;fillColor=#d5e8d4;strokeColor=#82b366;" parent="1" vertex="1">
          <mxGeometry x="1880" y="2689.5" width="280" height="120" as="geometry" />
        </mxCell>
        <mxCell id="GTw-UG3XcRqFb4BUSXq_-188" value="&lt;font style=&quot;font-size: 23px;&quot;&gt;Нажата кнопка &quot;Вход&quot;&lt;/font&gt;" style="text;html=1;align=center;verticalAlign=middle;resizable=0;points=[];autosize=1;strokeColor=none;fillColor=none;" parent="1" vertex="1">
          <mxGeometry x="1555" y="2605" width="260" height="40" as="geometry" />
        </mxCell>
        <mxCell id="GTw-UG3XcRqFb4BUSXq_-189" value="" style="ellipse;" parent="1" vertex="1">
          <mxGeometry x="1710" y="2754.5" width="20" height="20" as="geometry" />
        </mxCell>
        <mxCell id="GTw-UG3XcRqFb4BUSXq_-190" value="" style="html=1;verticalAlign=bottom;labelBackgroundColor=none;endArrow=open;endFill=0;rounded=0;exitX=0.509;exitY=1;exitDx=0;exitDy=0;exitPerimeter=0;" parent="1" source="cZp9UAYfrb_sJj40lZsu-1" edge="1">
          <mxGeometry width="160" relative="1" as="geometry">
            <mxPoint x="2037" y="2198" as="sourcePoint" />
            <mxPoint x="2037" y="2290" as="targetPoint" />
          </mxGeometry>
        </mxCell>
        <mxCell id="GTw-UG3XcRqFb4BUSXq_-191" value="&lt;font style=&quot;font-size: 23px;&quot;&gt;Нажата кнопка &quot;Зарегистрироваться&quot;&lt;/font&gt;" style="text;html=1;align=center;verticalAlign=middle;resizable=0;points=[];autosize=1;strokeColor=none;fillColor=none;" parent="1" vertex="1">
          <mxGeometry x="1837.0799999999997" y="1980" width="420" height="40" as="geometry" />
        </mxCell>
        <mxCell id="GTw-UG3XcRqFb4BUSXq_-192" value="&lt;font style=&quot;font-size: 20px;&quot;&gt;Вход&lt;/font&gt;" style="text;html=1;align=center;verticalAlign=middle;resizable=0;points=[];autosize=1;strokeColor=none;fillColor=none;" parent="1" vertex="1">
          <mxGeometry x="1635" y="2787" width="70" height="40" as="geometry" />
        </mxCell>
        <mxCell id="GTw-UG3XcRqFb4BUSXq_-193" style="edgeStyle=orthogonalEdgeStyle;rounded=0;orthogonalLoop=1;jettySize=auto;html=1;endArrow=open;endFill=0;entryX=0;entryY=0.5;entryDx=0;entryDy=0;" parent="1" source="GTw-UG3XcRqFb4BUSXq_-194" target="GTw-UG3XcRqFb4BUSXq_-208" edge="1">
          <mxGeometry relative="1" as="geometry">
            <mxPoint x="1300" y="2765" as="targetPoint" />
          </mxGeometry>
        </mxCell>
        <mxCell id="GTw-UG3XcRqFb4BUSXq_-194" value="" style="ellipse;fillColor=strokeColor;html=1;" parent="1" vertex="1">
          <mxGeometry x="1060" y="2742" width="50" height="45" as="geometry" />
        </mxCell>
        <mxCell id="GTw-UG3XcRqFb4BUSXq_-195" value="" style="endArrow=diamondThin;endFill=0;endSize=24;html=1;rounded=0;startArrow=open;startFill=0;exitX=0;exitY=0.5;exitDx=0;exitDy=0;" parent="1" source="GTw-UG3XcRqFb4BUSXq_-189" edge="1">
          <mxGeometry width="160" relative="1" as="geometry">
            <mxPoint x="1640" y="2764" as="sourcePoint" />
            <mxPoint x="1530" y="2764" as="targetPoint" />
          </mxGeometry>
        </mxCell>
        <mxCell id="GTw-UG3XcRqFb4BUSXq_-196" value="" style="endArrow=open;html=1;rounded=0;exitX=1;exitY=0.5;exitDx=0;exitDy=0;endFill=0;" parent="1" source="GTw-UG3XcRqFb4BUSXq_-189" edge="1">
          <mxGeometry width="50" height="50" relative="1" as="geometry">
            <mxPoint x="1660" y="2820" as="sourcePoint" />
            <mxPoint x="1880" y="2763" as="targetPoint" />
          </mxGeometry>
        </mxCell>
        <mxCell id="GTw-UG3XcRqFb4BUSXq_-198" value="&lt;font style=&quot;font-size: 23px;&quot;&gt;Нажата кнопка &quot;Войти&quot;&lt;/font&gt;" style="text;html=1;align=center;verticalAlign=middle;resizable=0;points=[];autosize=1;strokeColor=none;fillColor=none;" parent="1" vertex="1">
          <mxGeometry x="1898" y="2850" width="270" height="40" as="geometry" />
        </mxCell>
        <mxCell id="GTw-UG3XcRqFb4BUSXq_-200" value="&lt;font style=&quot;font-size: 25px;&quot;&gt;[ок]&lt;/font&gt;" style="text;html=1;align=center;verticalAlign=middle;resizable=0;points=[];autosize=1;strokeColor=none;fillColor=none;" parent="1" vertex="1">
          <mxGeometry x="2050" y="3080" width="60" height="40" as="geometry" />
        </mxCell>
        <mxCell id="GTw-UG3XcRqFb4BUSXq_-201" value="&lt;font size=&quot;1&quot; style=&quot;&quot;&gt;&lt;b style=&quot;font-size: 30px;&quot;&gt;Мой профиль&lt;/b&gt;&lt;/font&gt;" style="html=1;align=center;verticalAlign=top;rounded=1;absoluteArcSize=1;arcSize=18;dashed=0;whiteSpace=wrap;fillColor=#ffe6cc;strokeColor=#d79b00;" parent="1" vertex="1">
          <mxGeometry x="1880" y="3630" width="306" height="110" as="geometry" />
        </mxCell>
        <mxCell id="GTw-UG3XcRqFb4BUSXq_-202" value="" style="endArrow=open;html=1;rounded=1;endFill=0;edgeStyle=orthogonalEdgeStyle;exitX=1;exitY=0.5;exitDx=0;exitDy=0;entryX=0.5;entryY=1;entryDx=0;entryDy=0;" parent="1" source="GTw-UG3XcRqFb4BUSXq_-201" target="GTw-UG3XcRqFb4BUSXq_-279" edge="1">
          <mxGeometry width="50" height="50" relative="1" as="geometry">
            <mxPoint x="2186" y="3570" as="sourcePoint" />
            <mxPoint x="2282" y="3405" as="targetPoint" />
            <Array as="points">
              <mxPoint x="2282" y="3685" />
              <mxPoint x="2282" y="3520" />
            </Array>
          </mxGeometry>
        </mxCell>
        <mxCell id="GTw-UG3XcRqFb4BUSXq_-299" style="edgeStyle=orthogonalEdgeStyle;rounded=0;orthogonalLoop=1;jettySize=auto;html=1;entryX=0.5;entryY=0;entryDx=0;entryDy=0;endArrow=open;endFill=0;" parent="1" source="GTw-UG3XcRqFb4BUSXq_-206" target="GTw-UG3XcRqFb4BUSXq_-296" edge="1">
          <mxGeometry relative="1" as="geometry" />
        </mxCell>
        <mxCell id="GTw-UG3XcRqFb4BUSXq_-206" value="&lt;span style=&quot;font-size: 30px;&quot;&gt;&lt;b&gt;Новый пароль&lt;/b&gt;&lt;/span&gt;" style="html=1;align=center;verticalAlign=top;rounded=1;absoluteArcSize=1;arcSize=18;dashed=0;whiteSpace=wrap;fillColor=#ffe6cc;strokeColor=#d79b00;" parent="1" vertex="1">
          <mxGeometry x="1120" y="1950" width="324.26" height="120" as="geometry" />
        </mxCell>
        <mxCell id="GTw-UG3XcRqFb4BUSXq_-208" value="" style="rhombus;whiteSpace=wrap;html=1;rotation=0;" parent="1" vertex="1">
          <mxGeometry x="1330" y="2744.5" width="63" height="40" as="geometry" />
        </mxCell>
        <mxCell id="GTw-UG3XcRqFb4BUSXq_-209" value="" style="endArrow=open;html=1;rounded=0;exitX=1;exitY=0.5;exitDx=0;exitDy=0;endFill=0;" parent="1" source="GTw-UG3XcRqFb4BUSXq_-208" edge="1">
          <mxGeometry width="50" height="50" relative="1" as="geometry">
            <mxPoint x="1450" y="2810" as="sourcePoint" />
            <mxPoint x="1532" y="2764" as="targetPoint" />
          </mxGeometry>
        </mxCell>
        <mxCell id="GTw-UG3XcRqFb4BUSXq_-211" value="&lt;font style=&quot;font-size: 25px;&quot;&gt;[else]&lt;/font&gt;" style="text;html=1;align=center;verticalAlign=middle;resizable=0;points=[];autosize=1;strokeColor=none;fillColor=none;" parent="1" vertex="1">
          <mxGeometry x="1425" y="2722.5" width="80" height="40" as="geometry" />
        </mxCell>
        <mxCell id="GTw-UG3XcRqFb4BUSXq_-215" value="" style="html=1;verticalAlign=bottom;labelBackgroundColor=none;endArrow=open;endFill=0;rounded=0;entryX=0.5;entryY=0;entryDx=0;entryDy=0;" parent="1" target="GTw-UG3XcRqFb4BUSXq_-259" edge="1">
          <mxGeometry width="160" relative="1" as="geometry">
            <mxPoint x="2028" y="2809" as="sourcePoint" />
            <mxPoint x="2045" y="2898.5" as="targetPoint" />
          </mxGeometry>
        </mxCell>
        <mxCell id="GTw-UG3XcRqFb4BUSXq_-216" style="edgeStyle=orthogonalEdgeStyle;rounded=0;orthogonalLoop=1;jettySize=auto;html=1;entryX=0.5;entryY=0;entryDx=0;entryDy=0;endArrow=open;endFill=0;" parent="1" target="GTw-UG3XcRqFb4BUSXq_-217" edge="1">
          <mxGeometry relative="1" as="geometry">
            <mxPoint x="2045" y="2961.5" as="sourcePoint" />
          </mxGeometry>
        </mxCell>
        <mxCell id="GTw-UG3XcRqFb4BUSXq_-217" value="" style="shape=sumEllipse;perimeter=ellipsePerimeter;html=1;backgroundOutline=1;" parent="1" vertex="1">
          <mxGeometry x="2035" y="3000" width="20" height="20" as="geometry" />
        </mxCell>
        <mxCell id="GTw-UG3XcRqFb4BUSXq_-220" value="&lt;font style=&quot;font-size: 23px;&quot;&gt;Нажата кнопка &quot;Выйти из аккаунта&quot;&lt;/font&gt;" style="text;html=1;align=center;verticalAlign=middle;resizable=0;points=[];autosize=1;strokeColor=none;fillColor=none;" parent="1" vertex="1">
          <mxGeometry x="2170" y="3570" width="400" height="40" as="geometry" />
        </mxCell>
        <mxCell id="GTw-UG3XcRqFb4BUSXq_-221" value="" style="endArrow=open;html=1;rounded=0;endFill=0;entryX=0;entryY=0.5;entryDx=0;entryDy=0;exitX=1;exitY=0.25;exitDx=0;exitDy=0;" parent="1" source="GTw-UG3XcRqFb4BUSXq_-186" target="GTw-UG3XcRqFb4BUSXq_-239" edge="1">
          <mxGeometry width="50" height="50" relative="1" as="geometry">
            <mxPoint x="2350" y="2709" as="sourcePoint" />
            <mxPoint x="2499" y="2707" as="targetPoint" />
          </mxGeometry>
        </mxCell>
        <mxCell id="UPs23TSgF13i_ruoP6ZR-2" style="edgeStyle=orthogonalEdgeStyle;rounded=0;orthogonalLoop=1;jettySize=auto;html=1;entryX=0.5;entryY=1;entryDx=0;entryDy=0;endArrow=open;endFill=0;" edge="1" parent="1" source="GTw-UG3XcRqFb4BUSXq_-222" target="UPs23TSgF13i_ruoP6ZR-1">
          <mxGeometry relative="1" as="geometry" />
        </mxCell>
        <mxCell id="GTw-UG3XcRqFb4BUSXq_-222" value="&lt;font size=&quot;1&quot; style=&quot;&quot;&gt;&lt;b style=&quot;font-size: 30px;&quot;&gt;Восстановление пароля&lt;/b&gt;&lt;/font&gt;" style="html=1;align=center;verticalAlign=top;rounded=1;absoluteArcSize=1;arcSize=18;dashed=0;whiteSpace=wrap;fillColor=#ffe6cc;strokeColor=#d79b00;" parent="1" vertex="1">
          <mxGeometry x="2604.9799999999996" y="2780" width="270.01" height="110" as="geometry" />
        </mxCell>
        <mxCell id="GTw-UG3XcRqFb4BUSXq_-223" value="&lt;font style=&quot;font-size: 22px;&quot;&gt;Нажата кнопка&lt;br&gt;&amp;nbsp;&quot;Восстановить пароль&quot;&lt;/font&gt;" style="text;html=1;align=center;verticalAlign=middle;resizable=0;points=[];autosize=1;strokeColor=none;fillColor=none;" parent="1" vertex="1">
          <mxGeometry x="2330" y="2634.5" width="260" height="70" as="geometry" />
        </mxCell>
        <mxCell id="GTw-UG3XcRqFb4BUSXq_-224" value="&lt;span style=&quot;font-size: 30px;&quot;&gt;&lt;b&gt;Уведомление об отправке ссылки&lt;/b&gt;&lt;/span&gt;" style="html=1;align=center;verticalAlign=top;rounded=1;absoluteArcSize=1;arcSize=18;dashed=0;whiteSpace=wrap;fillColor=#ffe6cc;strokeColor=#d79b00;" parent="1" vertex="1">
          <mxGeometry x="2609.99" y="1990" width="290" height="100" as="geometry" />
        </mxCell>
        <mxCell id="GTw-UG3XcRqFb4BUSXq_-228" value="&lt;font style=&quot;font-size: 22px;&quot;&gt;Нажата кнопка &quot;Отправить&quot;&lt;/font&gt;" style="text;html=1;align=center;verticalAlign=middle;resizable=0;points=[];autosize=1;strokeColor=none;fillColor=none;" parent="1" vertex="1">
          <mxGeometry x="2592.4800000000005" y="2722.5" width="310" height="40" as="geometry" />
        </mxCell>
        <mxCell id="GTw-UG3XcRqFb4BUSXq_-229" value="&lt;font style=&quot;font-size: 25px;&quot;&gt;[else]&lt;/font&gt;" style="text;html=1;align=center;verticalAlign=middle;resizable=0;points=[];autosize=1;strokeColor=none;fillColor=none;" parent="1" vertex="1">
          <mxGeometry x="2920" y="2410" width="80" height="40" as="geometry" />
        </mxCell>
        <mxCell id="GTw-UG3XcRqFb4BUSXq_-230" style="edgeStyle=orthogonalEdgeStyle;rounded=0;orthogonalLoop=1;jettySize=auto;html=1;entryX=0.5;entryY=1;entryDx=0;entryDy=0;endArrow=open;endFill=0;exitX=0.5;exitY=0;exitDx=0;exitDy=0;" parent="1" source="GTw-UG3XcRqFb4BUSXq_-292" target="GTw-UG3XcRqFb4BUSXq_-291" edge="1">
          <mxGeometry relative="1" as="geometry">
            <mxPoint x="2748.46" y="2599" as="sourcePoint" />
            <mxPoint x="2590" y="2172.1800000000003" as="targetPoint" />
          </mxGeometry>
        </mxCell>
        <mxCell id="GTw-UG3XcRqFb4BUSXq_-231" value="" style="endArrow=open;html=1;rounded=0;entryX=0.507;entryY=1.003;entryDx=0;entryDy=0;endFill=0;entryPerimeter=0;exitX=0.508;exitY=0;exitDx=0;exitDy=0;exitPerimeter=0;" parent="1" target="GTw-UG3XcRqFb4BUSXq_-292" edge="1" source="UPs23TSgF13i_ruoP6ZR-1">
          <mxGeometry width="50" height="50" relative="1" as="geometry">
            <mxPoint x="2747" y="2730" as="sourcePoint" />
            <mxPoint x="2748.46" y="2662" as="targetPoint" />
          </mxGeometry>
        </mxCell>
        <mxCell id="GTw-UG3XcRqFb4BUSXq_-232" value="&lt;font style=&quot;font-size: 22px;&quot;&gt;Нажата кнопка &quot;X&quot;&lt;/font&gt;" style="text;html=1;align=center;verticalAlign=middle;resizable=0;points=[];autosize=1;strokeColor=none;fillColor=none;" parent="1" vertex="1">
          <mxGeometry x="2320" y="2430" width="210" height="40" as="geometry" />
        </mxCell>
        <mxCell id="GTw-UG3XcRqFb4BUSXq_-233" value="" style="endArrow=open;html=1;rounded=1;entryX=1;entryY=0.5;entryDx=0;entryDy=0;endFill=0;edgeStyle=orthogonalEdgeStyle;exitX=-0.001;exitY=0.7;exitDx=0;exitDy=0;exitPerimeter=0;" parent="1" source="GTw-UG3XcRqFb4BUSXq_-224" target="GTw-UG3XcRqFb4BUSXq_-245" edge="1">
          <mxGeometry width="50" height="50" relative="1" as="geometry">
            <mxPoint x="2610" y="2210" as="sourcePoint" />
            <mxPoint x="2670" y="2280" as="targetPoint" />
            <Array as="points">
              <mxPoint x="2530" y="2060" />
              <mxPoint x="2530" y="2480" />
            </Array>
          </mxGeometry>
        </mxCell>
        <mxCell id="GTw-UG3XcRqFb4BUSXq_-234" value="&lt;font size=&quot;1&quot; style=&quot;&quot;&gt;&lt;b style=&quot;font-size: 30px;&quot;&gt;Уведомление об ошибке&lt;/b&gt;&lt;/font&gt;" style="html=1;align=center;verticalAlign=top;rounded=1;absoluteArcSize=1;arcSize=18;dashed=0;whiteSpace=wrap;fillColor=#ffe6cc;strokeColor=#d79b00;" parent="1" vertex="1">
          <mxGeometry x="3010" y="2185" width="270" height="110" as="geometry" />
        </mxCell>
        <mxCell id="GTw-UG3XcRqFb4BUSXq_-236" value="" style="endArrow=open;html=1;rounded=1;exitX=0.999;exitY=0.524;exitDx=0;exitDy=0;edgeStyle=orthogonalEdgeStyle;endFill=0;exitPerimeter=0;" parent="1" source="GTw-UG3XcRqFb4BUSXq_-292" edge="1">
          <mxGeometry width="50" height="50" relative="1" as="geometry">
            <mxPoint x="2768.46" y="2630.5" as="sourcePoint" />
            <mxPoint x="3060" y="2460" as="targetPoint" />
            <Array as="points">
              <mxPoint x="2886" y="2460" />
              <mxPoint x="3060" y="2460" />
            </Array>
          </mxGeometry>
        </mxCell>
        <mxCell id="GTw-UG3XcRqFb4BUSXq_-237" value="&lt;font style=&quot;font-size: 23px;&quot;&gt;Нажата кнопка &quot;X&quot;&lt;/font&gt;" style="text;html=1;align=center;verticalAlign=middle;resizable=0;points=[];autosize=1;strokeColor=none;fillColor=none;" parent="1" vertex="1">
          <mxGeometry x="2902.48" y="2784.5" width="220" height="40" as="geometry" />
        </mxCell>
        <mxCell id="GTw-UG3XcRqFb4BUSXq_-238" value="" style="endArrow=open;html=1;rounded=1;exitX=0.5;exitY=1;exitDx=0;exitDy=0;endFill=0;edgeStyle=orthogonalEdgeStyle;entryX=1;entryY=0.5;entryDx=0;entryDy=0;" parent="1" source="GTw-UG3XcRqFb4BUSXq_-234" edge="1" target="GTw-UG3XcRqFb4BUSXq_-222">
          <mxGeometry width="50" height="50" relative="1" as="geometry">
            <mxPoint x="3311" y="2270" as="sourcePoint" />
            <mxPoint x="2880" y="2790" as="targetPoint" />
            <Array as="points">
              <mxPoint x="3145" y="2835" />
            </Array>
          </mxGeometry>
        </mxCell>
        <mxCell id="GTw-UG3XcRqFb4BUSXq_-239" value="" style="shape=sumEllipse;perimeter=ellipsePerimeter;html=1;backgroundOutline=1;" parent="1" vertex="1">
          <mxGeometry x="2350" y="2710" width="20" height="20" as="geometry" />
        </mxCell>
        <mxCell id="GTw-UG3XcRqFb4BUSXq_-240" style="edgeStyle=orthogonalEdgeStyle;rounded=1;orthogonalLoop=1;jettySize=auto;html=1;entryX=0;entryY=0.25;entryDx=0;entryDy=0;endArrow=open;endFill=0;" parent="1" source="GTw-UG3XcRqFb4BUSXq_-239" target="GTw-UG3XcRqFb4BUSXq_-222" edge="1">
          <mxGeometry relative="1" as="geometry">
            <Array as="points">
              <mxPoint x="2560" y="2720" />
              <mxPoint x="2560" y="2808" />
            </Array>
          </mxGeometry>
        </mxCell>
        <mxCell id="GTw-UG3XcRqFb4BUSXq_-241" value="" style="endArrow=open;html=1;rounded=1;entryX=1;entryY=0.5;entryDx=0;entryDy=0;exitX=0.158;exitY=1.006;exitDx=0;exitDy=0;endFill=0;exitPerimeter=0;edgeStyle=orthogonalEdgeStyle;" parent="1" source="GTw-UG3XcRqFb4BUSXq_-222" target="GTw-UG3XcRqFb4BUSXq_-242" edge="1">
          <mxGeometry width="50" height="50" relative="1" as="geometry">
            <mxPoint x="2490" y="2850" as="sourcePoint" />
            <mxPoint x="2540" y="2800" as="targetPoint" />
            <Array as="points">
              <mxPoint x="2648" y="2910" />
              <mxPoint x="2390" y="2910" />
              <mxPoint x="2390" y="2813" />
            </Array>
          </mxGeometry>
        </mxCell>
        <mxCell id="GTw-UG3XcRqFb4BUSXq_-242" value="" style="ellipse;" parent="1" vertex="1">
          <mxGeometry x="2350" y="2802.5" width="20" height="20" as="geometry" />
        </mxCell>
        <mxCell id="GTw-UG3XcRqFb4BUSXq_-243" style="edgeStyle=orthogonalEdgeStyle;rounded=1;orthogonalLoop=1;jettySize=auto;html=1;endArrow=open;endFill=0;" parent="1" source="GTw-UG3XcRqFb4BUSXq_-242" edge="1">
          <mxGeometry relative="1" as="geometry">
            <mxPoint x="2296" y="2762" as="targetPoint" />
            <Array as="points">
              <mxPoint x="2340" y="2812" />
              <mxPoint x="2340" y="2762" />
            </Array>
          </mxGeometry>
        </mxCell>
        <mxCell id="GTw-UG3XcRqFb4BUSXq_-244" value="&lt;font style=&quot;font-size: 22px;&quot;&gt;Нажата кнопка&lt;br&gt;&amp;nbsp;&quot;Назад&quot;&lt;/font&gt;" style="text;html=1;align=center;verticalAlign=middle;resizable=0;points=[];autosize=1;strokeColor=none;fillColor=none;" parent="1" vertex="1">
          <mxGeometry x="2420" y="2830" width="170" height="70" as="geometry" />
        </mxCell>
        <mxCell id="GTw-UG3XcRqFb4BUSXq_-245" value="" style="ellipse;" parent="1" vertex="1">
          <mxGeometry x="2350" y="2470" width="20" height="20" as="geometry" />
        </mxCell>
        <mxCell id="GTw-UG3XcRqFb4BUSXq_-246" style="edgeStyle=orthogonalEdgeStyle;rounded=1;orthogonalLoop=1;jettySize=auto;html=1;entryX=1.003;entryY=0.112;entryDx=0;entryDy=0;entryPerimeter=0;endArrow=open;endFill=0;" parent="1" source="GTw-UG3XcRqFb4BUSXq_-245" target="GTw-UG3XcRqFb4BUSXq_-186" edge="1">
          <mxGeometry relative="1" as="geometry">
            <Array as="points">
              <mxPoint x="2270" y="2480" />
              <mxPoint x="2270" y="2703" />
            </Array>
          </mxGeometry>
        </mxCell>
        <mxCell id="GTw-UG3XcRqFb4BUSXq_-248" value="&lt;font style=&quot;font-size: 23px;&quot;&gt;Нажата кнопка &quot;Восстановить&quot;&lt;/font&gt;" style="text;html=1;align=center;verticalAlign=middle;resizable=0;points=[];autosize=1;strokeColor=none;fillColor=none;" parent="1" vertex="1">
          <mxGeometry x="1095" y="2100" width="350" height="40" as="geometry" />
        </mxCell>
        <mxCell id="GTw-UG3XcRqFb4BUSXq_-253" value="" style="endArrow=diamondThin;endFill=0;endSize=24;html=1;rounded=0;startArrow=open;startFill=0;edgeStyle=orthogonalEdgeStyle;" parent="1" edge="1">
          <mxGeometry width="160" relative="1" as="geometry">
            <mxPoint x="1543" y="2756" as="sourcePoint" />
            <mxPoint x="1543" y="2630" as="targetPoint" />
            <Array as="points">
              <mxPoint x="1543" y="2695" />
            </Array>
          </mxGeometry>
        </mxCell>
        <mxCell id="GTw-UG3XcRqFb4BUSXq_-254" value="" style="endArrow=open;html=1;rounded=0;endFill=0;exitX=-0.001;exitY=0.518;exitDx=0;exitDy=0;exitPerimeter=0;" parent="1" source="GTw-UG3XcRqFb4BUSXq_-179" edge="1">
          <mxGeometry width="50" height="50" relative="1" as="geometry">
            <mxPoint x="1721" y="2680" as="sourcePoint" />
            <mxPoint x="1550" y="2643" as="targetPoint" />
          </mxGeometry>
        </mxCell>
        <mxCell id="GTw-UG3XcRqFb4BUSXq_-256" value="&lt;font style=&quot;font-size: 20px;&quot;&gt;Вход&lt;/font&gt;" style="text;html=1;align=center;verticalAlign=middle;resizable=0;points=[];autosize=1;strokeColor=none;fillColor=none;" parent="1" vertex="1">
          <mxGeometry x="2310" y="2830" width="70" height="40" as="geometry" />
        </mxCell>
        <mxCell id="GTw-UG3XcRqFb4BUSXq_-257" value="&lt;font style=&quot;font-size: 20px;&quot;&gt;Вход&lt;/font&gt;" style="text;html=1;align=center;verticalAlign=middle;resizable=0;points=[];autosize=1;strokeColor=none;fillColor=none;" parent="1" vertex="1">
          <mxGeometry x="2335" y="2500" width="70" height="40" as="geometry" />
        </mxCell>
        <mxCell id="GTw-UG3XcRqFb4BUSXq_-258" value="" style="endArrow=diamondThin;endFill=0;endSize=24;html=1;rounded=0;startArrow=open;startFill=0;exitX=0.996;exitY=0.605;exitDx=0;exitDy=0;exitPerimeter=0;" parent="1" source="GTw-UG3XcRqFb4BUSXq_-186" edge="1">
          <mxGeometry width="160" relative="1" as="geometry">
            <mxPoint x="2317.42" y="2765.41" as="sourcePoint" />
            <mxPoint x="2296" y="2762" as="targetPoint" />
          </mxGeometry>
        </mxCell>
        <mxCell id="GTw-UG3XcRqFb4BUSXq_-260" value="" style="edgeStyle=orthogonalEdgeStyle;rounded=0;orthogonalLoop=1;jettySize=auto;html=1;entryX=0.671;entryY=-0.008;entryDx=0;entryDy=0;entryPerimeter=0;endArrow=open;endFill=0;" parent="1" source="GTw-UG3XcRqFb4BUSXq_-217" target="GTw-UG3XcRqFb4BUSXq_-259" edge="1">
          <mxGeometry relative="1" as="geometry">
            <mxPoint x="2045" y="3020" as="sourcePoint" />
            <mxPoint x="2045" y="3229" as="targetPoint" />
          </mxGeometry>
        </mxCell>
        <mxCell id="GTw-UG3XcRqFb4BUSXq_-266" style="edgeStyle=orthogonalEdgeStyle;rounded=0;orthogonalLoop=1;jettySize=auto;html=1;entryX=0.5;entryY=0;entryDx=0;entryDy=0;" parent="1" source="GTw-UG3XcRqFb4BUSXq_-259" target="GTw-UG3XcRqFb4BUSXq_-261" edge="1">
          <mxGeometry relative="1" as="geometry" />
        </mxCell>
        <mxCell id="GTw-UG3XcRqFb4BUSXq_-259" value="&lt;font size=&quot;1&quot; style=&quot;&quot;&gt;&lt;b style=&quot;font-size: 30px;&quot;&gt;Валидация данных (на клиенте)&lt;/b&gt;&lt;/font&gt;" style="html=1;align=center;verticalAlign=top;rounded=1;absoluteArcSize=1;arcSize=18;dashed=0;whiteSpace=wrap;fillColor=#E3C15B;strokeColor=#d6b656;" parent="1" vertex="1">
          <mxGeometry x="1880" y="2955" width="295" height="110" as="geometry" />
        </mxCell>
        <mxCell id="GTw-UG3XcRqFb4BUSXq_-267" style="edgeStyle=orthogonalEdgeStyle;rounded=0;orthogonalLoop=1;jettySize=auto;html=1;entryX=0.5;entryY=0;entryDx=0;entryDy=0;endArrow=open;endFill=0;" parent="1" source="GTw-UG3XcRqFb4BUSXq_-261" target="GTw-UG3XcRqFb4BUSXq_-262" edge="1">
          <mxGeometry relative="1" as="geometry">
            <Array as="points">
              <mxPoint x="2029" y="3300" />
              <mxPoint x="2029" y="3300" />
            </Array>
          </mxGeometry>
        </mxCell>
        <mxCell id="GTw-UG3XcRqFb4BUSXq_-261" value="&lt;font size=&quot;1&quot; style=&quot;&quot;&gt;&lt;b style=&quot;font-size: 30px;&quot;&gt;Валидация данных (на сервере)&lt;/b&gt;&lt;/font&gt;" style="html=1;align=center;verticalAlign=top;rounded=1;absoluteArcSize=1;arcSize=18;dashed=0;whiteSpace=wrap;fillColor=#E3C15B;strokeColor=#d6b656;" parent="1" vertex="1">
          <mxGeometry x="1880" y="3160" width="295" height="110" as="geometry" />
        </mxCell>
        <mxCell id="GTw-UG3XcRqFb4BUSXq_-268" style="edgeStyle=orthogonalEdgeStyle;rounded=0;orthogonalLoop=1;jettySize=auto;html=1;entryX=0.5;entryY=0;entryDx=0;entryDy=0;endArrow=open;endFill=0;" parent="1" source="GTw-UG3XcRqFb4BUSXq_-262" target="GTw-UG3XcRqFb4BUSXq_-277" edge="1">
          <mxGeometry relative="1" as="geometry">
            <Array as="points">
              <mxPoint x="2028" y="3475" />
              <mxPoint x="2028" y="3475" />
            </Array>
          </mxGeometry>
        </mxCell>
        <mxCell id="GTw-UG3XcRqFb4BUSXq_-262" value="&lt;font size=&quot;1&quot; style=&quot;&quot;&gt;&lt;b style=&quot;font-size: 30px;&quot;&gt;Проверка учетной записи пользователя&lt;/b&gt;&lt;/font&gt;" style="html=1;align=center;verticalAlign=top;rounded=1;absoluteArcSize=1;arcSize=18;dashed=0;whiteSpace=wrap;fillColor=#E3C15B;strokeColor=#d6b656;" parent="1" vertex="1">
          <mxGeometry x="1880" y="3330" width="297.08" height="120" as="geometry" />
        </mxCell>
        <mxCell id="GTw-UG3XcRqFb4BUSXq_-263" value="&lt;font style=&quot;font-size: 25px;&quot;&gt;[ок]&lt;/font&gt;" style="text;html=1;align=center;verticalAlign=middle;resizable=0;points=[];autosize=1;strokeColor=none;fillColor=none;" parent="1" vertex="1">
          <mxGeometry x="2055" y="3280" width="60" height="40" as="geometry" />
        </mxCell>
        <mxCell id="GTw-UG3XcRqFb4BUSXq_-264" value="&lt;font style=&quot;font-size: 25px;&quot;&gt;[ок]&lt;/font&gt;" style="text;html=1;align=center;verticalAlign=middle;resizable=0;points=[];autosize=1;strokeColor=none;fillColor=none;" parent="1" vertex="1">
          <mxGeometry x="2030" y="3540" width="60" height="40" as="geometry" />
        </mxCell>
        <mxCell id="GTw-UG3XcRqFb4BUSXq_-265" value="" style="endArrow=diamondThin;endFill=0;endSize=24;html=1;rounded=0;startArrow=open;startFill=0;" parent="1" edge="1">
          <mxGeometry width="160" relative="1" as="geometry">
            <mxPoint x="2282" y="2769" as="sourcePoint" />
            <mxPoint x="2282" y="3055.5" as="targetPoint" />
          </mxGeometry>
        </mxCell>
        <mxCell id="GTw-UG3XcRqFb4BUSXq_-269" value="" style="endArrow=open;html=1;rounded=0;endFill=0;" parent="1" edge="1">
          <mxGeometry width="50" height="50" relative="1" as="geometry">
            <mxPoint x="2175" y="3042" as="sourcePoint" />
            <mxPoint x="2275" y="3042" as="targetPoint" />
          </mxGeometry>
        </mxCell>
        <mxCell id="GTw-UG3XcRqFb4BUSXq_-270" value="" style="endArrow=diamondThin;endFill=0;endSize=24;html=1;rounded=0;startArrow=open;startFill=0;" parent="1" edge="1">
          <mxGeometry width="160" relative="1" as="geometry">
            <mxPoint x="2282" y="3054" as="sourcePoint" />
            <mxPoint x="2283" y="3221" as="targetPoint" />
          </mxGeometry>
        </mxCell>
        <mxCell id="GTw-UG3XcRqFb4BUSXq_-271" value="" style="endArrow=open;html=1;rounded=0;endFill=0;exitX=1;exitY=0.441;exitDx=0;exitDy=0;exitPerimeter=0;" parent="1" source="GTw-UG3XcRqFb4BUSXq_-261" edge="1">
          <mxGeometry width="50" height="50" relative="1" as="geometry">
            <mxPoint x="2200" y="3240" as="sourcePoint" />
            <mxPoint x="2276" y="3208" as="targetPoint" />
          </mxGeometry>
        </mxCell>
        <mxCell id="GTw-UG3XcRqFb4BUSXq_-272" value="&lt;font style=&quot;font-size: 25px;&quot;&gt;[else]&lt;/font&gt;" style="text;html=1;align=center;verticalAlign=middle;resizable=0;points=[];autosize=1;strokeColor=none;fillColor=none;" parent="1" vertex="1">
          <mxGeometry x="2186" y="3050" width="80" height="40" as="geometry" />
        </mxCell>
        <mxCell id="GTw-UG3XcRqFb4BUSXq_-273" value="&lt;font style=&quot;font-size: 25px;&quot;&gt;[else]&lt;/font&gt;" style="text;html=1;align=center;verticalAlign=middle;resizable=0;points=[];autosize=1;strokeColor=none;fillColor=none;" parent="1" vertex="1">
          <mxGeometry x="2185" y="3210" width="80" height="40" as="geometry" />
        </mxCell>
        <mxCell id="GTw-UG3XcRqFb4BUSXq_-274" value="" style="endArrow=diamondThin;endFill=0;endSize=24;html=1;rounded=0;startArrow=open;startFill=0;" parent="1" edge="1">
          <mxGeometry width="160" relative="1" as="geometry">
            <mxPoint x="2283" y="3219" as="sourcePoint" />
            <mxPoint x="2282" y="3406" as="targetPoint" />
          </mxGeometry>
        </mxCell>
        <mxCell id="GTw-UG3XcRqFb4BUSXq_-275" value="" style="endArrow=open;html=1;rounded=0;exitX=1;exitY=0.52;exitDx=0;exitDy=0;exitPerimeter=0;endFill=0;" parent="1" source="GTw-UG3XcRqFb4BUSXq_-262" edge="1">
          <mxGeometry width="50" height="50" relative="1" as="geometry">
            <mxPoint x="2210" y="3440" as="sourcePoint" />
            <mxPoint x="2275" y="3392" as="targetPoint" />
          </mxGeometry>
        </mxCell>
        <mxCell id="GTw-UG3XcRqFb4BUSXq_-276" value="&lt;font style=&quot;font-size: 25px;&quot;&gt;[else]&lt;/font&gt;" style="text;html=1;align=center;verticalAlign=middle;resizable=0;points=[];autosize=1;strokeColor=none;fillColor=none;" parent="1" vertex="1">
          <mxGeometry x="2185" y="3390" width="80" height="40" as="geometry" />
        </mxCell>
        <mxCell id="GTw-UG3XcRqFb4BUSXq_-277" value="" style="shape=sumEllipse;perimeter=ellipsePerimeter;html=1;backgroundOutline=1;" parent="1" vertex="1">
          <mxGeometry x="2018.54" y="3500" width="20" height="20" as="geometry" />
        </mxCell>
        <mxCell id="GTw-UG3XcRqFb4BUSXq_-278" style="edgeStyle=orthogonalEdgeStyle;rounded=0;orthogonalLoop=1;jettySize=auto;html=1;entryX=0.488;entryY=-0.002;entryDx=0;entryDy=0;entryPerimeter=0;endArrow=open;endFill=0;" parent="1" source="GTw-UG3XcRqFb4BUSXq_-277" target="GTw-UG3XcRqFb4BUSXq_-201" edge="1">
          <mxGeometry relative="1" as="geometry" />
        </mxCell>
        <mxCell id="GTw-UG3XcRqFb4BUSXq_-280" style="edgeStyle=orthogonalEdgeStyle;rounded=0;orthogonalLoop=1;jettySize=auto;html=1;endArrow=open;endFill=0;" parent="1" source="GTw-UG3XcRqFb4BUSXq_-279" edge="1">
          <mxGeometry relative="1" as="geometry">
            <mxPoint x="2282.173913043478" y="3403.782608695652" as="targetPoint" />
          </mxGeometry>
        </mxCell>
        <mxCell id="GTw-UG3XcRqFb4BUSXq_-279" value="" style="ellipse;" parent="1" vertex="1">
          <mxGeometry x="2272" y="3500" width="20" height="20" as="geometry" />
        </mxCell>
        <mxCell id="GTw-UG3XcRqFb4BUSXq_-210" value="&lt;font style=&quot;font-size: 25px;&quot;&gt;[Ссылка для восстановления пароля]&lt;/font&gt;" style="text;html=1;align=center;verticalAlign=middle;resizable=0;points=[];autosize=1;strokeColor=none;fillColor=none;" parent="1" vertex="1">
          <mxGeometry x="925" y="2649.5" width="460" height="40" as="geometry" />
        </mxCell>
        <mxCell id="GTw-UG3XcRqFb4BUSXq_-288" style="edgeStyle=orthogonalEdgeStyle;rounded=0;orthogonalLoop=1;jettySize=auto;html=1;entryX=0.528;entryY=0;entryDx=0;entryDy=0;endArrow=open;endFill=0;exitX=0.514;exitY=1.003;exitDx=0;exitDy=0;exitPerimeter=0;entryPerimeter=0;" parent="1" source="GTw-UG3XcRqFb4BUSXq_-283" target="GTw-UG3XcRqFb4BUSXq_-284" edge="1">
          <mxGeometry relative="1" as="geometry">
            <Array as="points">
              <mxPoint x="2038" y="2471" />
              <mxPoint x="2037" y="2471" />
              <mxPoint x="2037" y="2530" />
            </Array>
          </mxGeometry>
        </mxCell>
        <mxCell id="GTw-UG3XcRqFb4BUSXq_-283" value="&lt;span style=&quot;font-size: 30px;&quot;&gt;&lt;b&gt;Проверка уникальности email&lt;/b&gt;&lt;/span&gt;" style="html=1;align=center;verticalAlign=top;rounded=1;absoluteArcSize=1;arcSize=18;dashed=0;whiteSpace=wrap;fillColor=#E3C15B;strokeColor=#d6b656;" parent="1" vertex="1">
          <mxGeometry x="1887.5" y="2290" width="292.5" height="122" as="geometry" />
        </mxCell>
        <mxCell id="GTw-UG3XcRqFb4BUSXq_-284" value="&lt;span style=&quot;font-size: 30px;&quot;&gt;&lt;b&gt;Сохранение данных&amp;nbsp;&lt;/b&gt;&lt;/span&gt;" style="html=1;align=center;verticalAlign=top;rounded=1;absoluteArcSize=1;arcSize=18;dashed=0;whiteSpace=wrap;fillColor=#E3C15B;strokeColor=#d6b656;" parent="1" vertex="1">
          <mxGeometry x="1881.04" y="2530" width="295" height="110" as="geometry" />
        </mxCell>
        <mxCell id="GTw-UG3XcRqFb4BUSXq_-285" value="" style="endArrow=open;html=1;endFill=0;edgeStyle=orthogonalEdgeStyle;" parent="1" edge="1">
          <mxGeometry width="50" height="50" relative="1" as="geometry">
            <mxPoint x="2177" y="2350" as="sourcePoint" />
            <mxPoint x="2270" y="2130" as="targetPoint" />
            <Array as="points">
              <mxPoint x="2270" y="2350" />
            </Array>
          </mxGeometry>
        </mxCell>
        <mxCell id="GTw-UG3XcRqFb4BUSXq_-286" value="&lt;font style=&quot;font-size: 25px;&quot;&gt;[else]&lt;/font&gt;" style="text;html=1;align=center;verticalAlign=middle;resizable=0;points=[];autosize=1;strokeColor=none;fillColor=none;" parent="1" vertex="1">
          <mxGeometry x="2175" y="2350" width="80" height="40" as="geometry" />
        </mxCell>
        <mxCell id="GTw-UG3XcRqFb4BUSXq_-287" value="&lt;font style=&quot;font-size: 25px;&quot;&gt;[email уникальный]&lt;/font&gt;" style="text;html=1;align=center;verticalAlign=middle;resizable=0;points=[];autosize=1;strokeColor=none;fillColor=none;" parent="1" vertex="1">
          <mxGeometry x="1925" y="2450" width="240" height="40" as="geometry" />
        </mxCell>
        <mxCell id="GTw-UG3XcRqFb4BUSXq_-289" value="" style="endArrow=open;html=1;rounded=0;endFill=0;exitX=0.521;exitY=1.004;exitDx=0;exitDy=0;exitPerimeter=0;entryX=0.549;entryY=0.01;entryDx=0;entryDy=0;entryPerimeter=0;" parent="1" source="GTw-UG3XcRqFb4BUSXq_-284" target="GTw-UG3XcRqFb4BUSXq_-186" edge="1">
          <mxGeometry width="50" height="50" relative="1" as="geometry">
            <mxPoint x="2010" y="2690" as="sourcePoint" />
            <mxPoint x="2021" y="2688" as="targetPoint" />
          </mxGeometry>
        </mxCell>
        <mxCell id="GTw-UG3XcRqFb4BUSXq_-291" value="&lt;font size=&quot;1&quot; style=&quot;&quot;&gt;&lt;b style=&quot;font-size: 30px;&quot;&gt;Отправка ссылки для восстановления на почту&lt;/b&gt;&lt;/font&gt;" style="html=1;align=center;verticalAlign=top;rounded=1;absoluteArcSize=1;arcSize=18;dashed=0;whiteSpace=wrap;fillColor=#E3C15B;strokeColor=#d6b656;" parent="1" vertex="1">
          <mxGeometry x="2579.9799999999996" y="2175" width="320.01" height="130" as="geometry" />
        </mxCell>
        <mxCell id="GTw-UG3XcRqFb4BUSXq_-292" value="&lt;font size=&quot;1&quot; style=&quot;&quot;&gt;&lt;b style=&quot;font-size: 30px;&quot;&gt;Проверка наличия email в базе&lt;/b&gt;&lt;/font&gt;" style="html=1;align=center;verticalAlign=top;rounded=1;absoluteArcSize=1;arcSize=18;dashed=0;whiteSpace=wrap;fillColor=#E3C15B;strokeColor=#d6b656;" parent="1" vertex="1">
          <mxGeometry x="2594.9799999999996" y="2400" width="290.01" height="115" as="geometry" />
        </mxCell>
        <mxCell id="GTw-UG3XcRqFb4BUSXq_-293" value="&lt;font style=&quot;font-size: 24px;&quot;&gt;[Проверка пройдена ]&lt;/font&gt;" style="text;html=1;align=center;verticalAlign=middle;resizable=0;points=[];autosize=1;strokeColor=none;fillColor=none;" parent="1" vertex="1">
          <mxGeometry x="2620" y="2340" width="260" height="40" as="geometry" />
        </mxCell>
        <mxCell id="GTw-UG3XcRqFb4BUSXq_-294" value="" style="endArrow=open;html=1;rounded=0;entryX=0.445;entryY=0.993;entryDx=0;entryDy=0;entryPerimeter=0;exitX=0.495;exitY=-0.005;exitDx=0;exitDy=0;endFill=0;exitPerimeter=0;" parent="1" source="GTw-UG3XcRqFb4BUSXq_-291" target="GTw-UG3XcRqFb4BUSXq_-224" edge="1">
          <mxGeometry width="50" height="50" relative="1" as="geometry">
            <mxPoint x="2720" y="2350" as="sourcePoint" />
            <mxPoint x="2770" y="2300" as="targetPoint" />
          </mxGeometry>
        </mxCell>
        <mxCell id="GTw-UG3XcRqFb4BUSXq_-301" style="edgeStyle=orthogonalEdgeStyle;rounded=0;orthogonalLoop=1;jettySize=auto;html=1;entryX=0.5;entryY=0;entryDx=0;entryDy=0;endArrow=open;endFill=0;" parent="1" source="GTw-UG3XcRqFb4BUSXq_-296" target="GTw-UG3XcRqFb4BUSXq_-297" edge="1">
          <mxGeometry relative="1" as="geometry" />
        </mxCell>
        <mxCell id="GTw-UG3XcRqFb4BUSXq_-296" value="&lt;b style=&quot;font-size: 30px;&quot;&gt;Валидация данных (на клиенте)&lt;/b&gt;" style="html=1;align=center;verticalAlign=top;rounded=1;absoluteArcSize=1;arcSize=18;dashed=0;whiteSpace=wrap;fillColor=#E3C15B;strokeColor=#F0CC60;" parent="1" vertex="1">
          <mxGeometry x="1134.63" y="2170" width="295" height="110" as="geometry" />
        </mxCell>
        <mxCell id="GTw-UG3XcRqFb4BUSXq_-305" style="edgeStyle=orthogonalEdgeStyle;rounded=1;orthogonalLoop=1;jettySize=auto;html=1;endArrow=open;endFill=0;" parent="1" source="GTw-UG3XcRqFb4BUSXq_-297" edge="1">
          <mxGeometry relative="1" as="geometry">
            <mxPoint x="1543" y="2630" as="targetPoint" />
          </mxGeometry>
        </mxCell>
        <mxCell id="GTw-UG3XcRqFb4BUSXq_-297" value="&lt;span style=&quot;font-size: 30px;&quot;&gt;&lt;b&gt;Смена пароля для пользователя&lt;/b&gt;&lt;/span&gt;" style="html=1;align=center;verticalAlign=top;rounded=1;absoluteArcSize=1;arcSize=18;dashed=0;whiteSpace=wrap;fillColor=#E3C15B;strokeColor=#d6b656;" parent="1" vertex="1">
          <mxGeometry x="1134.63" y="2390" width="295" height="110" as="geometry" />
        </mxCell>
        <mxCell id="GTw-UG3XcRqFb4BUSXq_-298" value="" style="endArrow=open;html=1;rounded=1;endFill=0;edgeStyle=orthogonalEdgeStyle;entryX=0;entryY=0.5;entryDx=0;entryDy=0;" parent="1" target="GTw-UG3XcRqFb4BUSXq_-206" edge="1">
          <mxGeometry width="50" height="50" relative="1" as="geometry">
            <mxPoint x="1361" y="2744" as="sourcePoint" />
            <mxPoint x="1370" y="2650" as="targetPoint" />
            <Array as="points">
              <mxPoint x="1361" y="2690" />
              <mxPoint x="930" y="2690" />
              <mxPoint x="930" y="2010" />
            </Array>
          </mxGeometry>
        </mxCell>
        <mxCell id="GTw-UG3XcRqFb4BUSXq_-300" value="&lt;font style=&quot;font-size: 25px;&quot;&gt;[else]&lt;/font&gt;" style="text;html=1;align=center;verticalAlign=middle;resizable=0;points=[];autosize=1;strokeColor=none;fillColor=none;" parent="1" vertex="1">
          <mxGeometry x="1460" y="2230" width="80" height="40" as="geometry" />
        </mxCell>
        <mxCell id="GTw-UG3XcRqFb4BUSXq_-302" value="&lt;font style=&quot;font-size: 25px;&quot;&gt;[Поля валидны]&lt;/font&gt;" style="text;html=1;align=center;verticalAlign=middle;resizable=0;points=[];autosize=1;strokeColor=none;fillColor=none;" parent="1" vertex="1">
          <mxGeometry x="1177.13" y="2318" width="210" height="40" as="geometry" />
        </mxCell>
        <mxCell id="GTw-UG3XcRqFb4BUSXq_-303" style="edgeStyle=orthogonalEdgeStyle;rounded=1;orthogonalLoop=1;jettySize=auto;html=1;entryX=1;entryY=0.582;entryDx=0;entryDy=0;exitX=0.999;exitY=0.578;exitDx=0;exitDy=0;endArrow=open;endFill=0;exitPerimeter=0;entryPerimeter=0;" parent="1" source="GTw-UG3XcRqFb4BUSXq_-296" target="GTw-UG3XcRqFb4BUSXq_-206" edge="1">
          <mxGeometry relative="1" as="geometry">
            <Array as="points">
              <mxPoint x="1429" y="2235" />
              <mxPoint x="1480" y="2235" />
              <mxPoint x="1480" y="2020" />
              <mxPoint x="1444" y="2020" />
            </Array>
          </mxGeometry>
        </mxCell>
        <mxCell id="GTw-UG3XcRqFb4BUSXq_-307" value="&lt;font style=&quot;font-size: 20px;&quot;&gt;Вход&lt;/font&gt;" style="text;html=1;align=center;verticalAlign=middle;resizable=0;points=[];autosize=1;strokeColor=none;fillColor=none;" parent="1" vertex="1">
          <mxGeometry x="2305" y="3510" width="70" height="40" as="geometry" />
        </mxCell>
        <mxCell id="cZp9UAYfrb_sJj40lZsu-1" value="&lt;span style=&quot;font-size: 30px;&quot;&gt;&lt;b&gt;Валидация данных (на клиенте)&lt;/b&gt;&lt;/span&gt;" style="html=1;align=center;verticalAlign=top;rounded=1;absoluteArcSize=1;arcSize=18;dashed=0;whiteSpace=wrap;fillColor=#E3C15B;strokeColor=#d6b656;" parent="1" vertex="1">
          <mxGeometry x="1887.5" y="2070" width="295" height="122" as="geometry" />
        </mxCell>
        <mxCell id="cZp9UAYfrb_sJj40lZsu-3" value="" style="endArrow=diamondThin;endFill=0;endSize=24;html=1;rounded=1;startArrow=open;startFill=0;exitX=1;exitY=0.5;exitDx=0;exitDy=0;edgeStyle=orthogonalEdgeStyle;curved=0;" parent="1" source="GTw-UG3XcRqFb4BUSXq_-180" edge="1">
          <mxGeometry width="160" relative="1" as="geometry">
            <mxPoint x="2243" y="1957.75" as="sourcePoint" />
            <mxPoint x="2270" y="2131" as="targetPoint" />
            <Array as="points">
              <mxPoint x="2270" y="1900" />
              <mxPoint x="2270" y="2130" />
            </Array>
          </mxGeometry>
        </mxCell>
        <mxCell id="cZp9UAYfrb_sJj40lZsu-4" value="" style="endArrow=open;html=1;rounded=0;exitX=0.999;exitY=0.377;exitDx=0;exitDy=0;exitPerimeter=0;endFill=0;" parent="1" source="cZp9UAYfrb_sJj40lZsu-1" edge="1">
          <mxGeometry width="50" height="50" relative="1" as="geometry">
            <mxPoint x="2210" y="2190" as="sourcePoint" />
            <mxPoint x="2262" y="2116" as="targetPoint" />
          </mxGeometry>
        </mxCell>
        <mxCell id="cZp9UAYfrb_sJj40lZsu-5" value="&lt;font style=&quot;font-size: 25px;&quot;&gt;[else]&lt;/font&gt;" style="text;html=1;align=center;verticalAlign=middle;resizable=0;points=[];autosize=1;strokeColor=none;fillColor=none;" parent="1" vertex="1">
          <mxGeometry x="2177.08" y="2130" width="80" height="40" as="geometry" />
        </mxCell>
        <mxCell id="cZp9UAYfrb_sJj40lZsu-7" value="&lt;font style=&quot;font-size: 25px;&quot;&gt;[Поля валидны]&lt;/font&gt;" style="text;html=1;align=center;verticalAlign=middle;resizable=0;points=[];autosize=1;strokeColor=none;fillColor=none;" parent="1" vertex="1">
          <mxGeometry x="1935" y="2220" width="210" height="40" as="geometry" />
        </mxCell>
        <mxCell id="UPs23TSgF13i_ruoP6ZR-1" value="&lt;span style=&quot;font-size: 30px;&quot;&gt;&lt;b&gt;Валидация данных (на клиенте)&lt;/b&gt;&lt;/span&gt;" style="html=1;align=center;verticalAlign=top;rounded=1;absoluteArcSize=1;arcSize=18;dashed=0;whiteSpace=wrap;fillColor=#E3C15B;strokeColor=#d6b656;" vertex="1" parent="1">
          <mxGeometry x="2592.48" y="2588.5" width="295" height="122" as="geometry" />
        </mxCell>
        <mxCell id="UPs23TSgF13i_ruoP6ZR-5" value="" style="endArrow=diamondThin;endFill=0;endSize=24;html=1;rounded=1;startArrow=open;startFill=0;edgeStyle=orthogonalEdgeStyle;curved=0;exitX=0.213;exitY=1.001;exitDx=0;exitDy=0;exitPerimeter=0;" edge="1" parent="1" source="GTw-UG3XcRqFb4BUSXq_-234">
          <mxGeometry width="160" relative="1" as="geometry">
            <mxPoint x="3067" y="2288" as="sourcePoint" />
            <mxPoint x="3067.95" y="2473.5" as="targetPoint" />
            <Array as="points">
              <mxPoint x="3068" y="2310" />
              <mxPoint x="3068" y="2310" />
            </Array>
          </mxGeometry>
        </mxCell>
        <mxCell id="UPs23TSgF13i_ruoP6ZR-6" value="" style="endArrow=open;html=1;rounded=1;edgeStyle=orthogonalEdgeStyle;endFill=0;exitX=1.002;exitY=0.417;exitDx=0;exitDy=0;exitPerimeter=0;" edge="1" parent="1" source="UPs23TSgF13i_ruoP6ZR-1">
          <mxGeometry width="50" height="50" relative="1" as="geometry">
            <mxPoint x="2890" y="2639" as="sourcePoint" />
            <mxPoint x="3068" y="2472" as="targetPoint" />
            <Array as="points">
              <mxPoint x="2896" y="2639" />
              <mxPoint x="3068" y="2639" />
            </Array>
          </mxGeometry>
        </mxCell>
        <mxCell id="UPs23TSgF13i_ruoP6ZR-7" value="&lt;font style=&quot;font-size: 25px;&quot;&gt;[else]&lt;/font&gt;" style="text;html=1;align=center;verticalAlign=middle;resizable=0;points=[];autosize=1;strokeColor=none;fillColor=none;" vertex="1" parent="1">
          <mxGeometry x="2920" y="2588.5" width="80" height="40" as="geometry" />
        </mxCell>
        <mxCell id="UPs23TSgF13i_ruoP6ZR-9" value="&lt;font style=&quot;font-size: 25px;&quot;&gt;[Поля валидны]&lt;/font&gt;" style="text;html=1;align=center;verticalAlign=middle;resizable=0;points=[];autosize=1;strokeColor=none;fillColor=none;" vertex="1" parent="1">
          <mxGeometry x="2642.48" y="2540" width="210" height="40" as="geometry" />
        </mxCell>
      </root>
    </mxGraphModel>
  </diagram>
</mxfile>
